<?xml version="1.0" encoding="UTF-8"?>
<svg width="512" height="512" viewBox="0 0 512 512" fill="none" xmlns="http://www.w3.org/2000/svg">
  <defs>
    <linearGradient id="neonGlow" x1="0%" y1="0%" x2="100%" y2="0%">
      <stop offset="0%" style="stop-color:#FF3B8B"/>
      <stop offset="50%" style="stop-color:#8C46FF"/>
      <stop offset="100%" style="stop-color:#3B8AFF"/>
    </linearGradient>
    <filter id="glow" x="-50%" y="-50%" width="200%" height="200%">
      <feGaussianBlur in="SourceGraphic" stdDeviation="8"/>
    </filter>
  </defs>
  
  <!-- Heart outline with glow -->
  <path d="M256 412.8L219.2 379.2C128 298.7 68.3 245.3 68.3 177.9C68.3 123.2 111.5 80 166.2 80C195.8 80 224.1 93.1 256 118.4C287.9 93.1 316.2 80 345.8 80C400.5 80 443.7 123.2 443.7 177.9C443.7 245.3 384 298.7 292.8 379.2L256 412.8Z" 
        stroke="url(#neonGlow)" 
        stroke-width="24"
        stroke-linecap="round"
        stroke-linejoin="round"
        filter="url(#glow)"/>
  
  <!-- Circuit board lines -->
  <g stroke="url(#neonGlow)" stroke-width="4" opacity="0.6">
    <path d="M166.2 177.9H120" />
    <path d="M345.8 177.9H392" />
    <path d="M256 320V360" />
    <circle cx="166.2" cy="177.9" r="8" fill="url(#neonGlow)" />
    <circle cx="345.8" cy="177.9" r="8" fill="url(#neonGlow)" />
    <circle cx="256" cy="320" r="8" fill="url(#neonGlow)" />
    <path d="M200 240H160" />
    <path d="M312 240H352" />
    <circle cx="200" cy="240" r="8" fill="url(#neonGlow)" />
    <circle cx="312" cy="240" r="8" fill="url(#neonGlow)" />
  </g>
</svg> 